<svg width="48" height="48" viewBox="0 0 48 48" fill="none" xmlns="http://www.w3.org/2000/svg">
<rect width="48" height="48" rx="15" fill="#061727"/>
<line x1="10.3503" y1="18.45" x2="10.3503" y2="40.95" stroke="#63D1D0" stroke-width="3"/>
<circle cx="19.2" cy="18.15" r="3.4425" stroke="#63D1D0" stroke-width="1.215"/>
<circle cx="15.12" cy="20.97" r="1.215" stroke="#63D1D0" stroke-width="0.81"/>
<circle cx="15.0795" cy="24.0075" r="0.81" stroke="#63D1D0" stroke-width="0.405"/>
<circle cx="15.0795" cy="26.4375" r="0.81" stroke="#63D1D0" stroke-width="0.405"/>
<line x1="15.039" y1="23.238" x2="15.039" y2="22.428" stroke="#63D1D0" stroke-width="0.324"/>
<line x1="15.039" y1="25.749" x2="15.039" y2="24.939" stroke="#63D1D0" stroke-width="0.324"/>
<line x1="8.85028" y1="39.45" x2="38.8518" y2="39.45" stroke="#63D1D0" stroke-width="3"/>
<line y1="-1.5" x2="30.0008" y2="-1.5" transform="matrix(-0.707125 0.707089 -0.707125 -0.707089 24.0643 1.95007)" stroke="#63D1D0" stroke-width="3"/>
<line y1="-1.5" x2="22.5006" y2="-1.5" transform="matrix(-0.707125 -0.707089 0.707125 -0.707089 39.975 17.8599)" stroke="#63D1D0" stroke-width="3"/>
<mask id="mask0_4557_1006" style="mask-type:alpha" maskUnits="userSpaceOnUse" x="20" y="25" width="8" height="14">
<rect x="20.1" y="25.2" width="7.5" height="13.5" rx="0.5625" fill="#63D1D0"/>
</mask>
<g mask="url(#mask0_4557_1006)">
<path d="M20.493 34.169C20.3232 34.0299 20.2498 33.8048 20.305 33.5924L23.3056 22.0385C23.4514 21.477 24.2486 21.477 24.3945 22.0385L27.3951 33.5924C27.4502 33.8048 27.3768 34.0299 27.2071 34.169L24.2065 36.6268C23.9992 36.7966 23.7009 36.7966 23.4936 36.6268L20.493 34.169Z" fill="#63D1D0"/>
</g>
<path d="M25.2661 24.6177C25.2026 24.7447 25.0728 24.825 24.9307 24.825H22.7692C22.6272 24.825 22.4974 24.7447 22.4338 24.6177L21.4963 22.7427C21.3717 22.4933 21.553 22.2 21.8317 22.2H25.8682C26.147 22.2 26.3283 22.4933 26.2036 22.7427L25.2661 24.6177Z" fill="#63D1D0"/>
</svg>
