<svg width="15" height="22" viewBox="0 0 15 22" fill="none" xmlns="http://www.w3.org/2000/svg">
<path d="M12.321 21.3423C12.3074 21.351 12.2937 21.3598 12.2744 21.3747C12.2688 21.381 12.268 21.3863 12.2621 21.3903C12.2514 21.4033 12.2466 21.4125 12.2418 21.4216C12.2418 21.4216 12.2359 21.4198 12.2303 21.4227C12.2247 21.4256 12.2228 21.432 12.2228 21.432C11.9666 21.6201 11.7111 21.8092 11.4526 21.9943C11.4331 22.0083 11.3928 21.9938 11.3615 21.9798C11.3833 21.6161 11.4377 21.2634 11.4188 20.9145C11.4019 20.6028 11.3042 20.2953 11.2386 19.9629C11.1728 19.7913 11.1104 19.6428 11.0461 19.4834C10.9956 19.3924 10.9469 19.3125 10.8989 19.2345C10.8994 19.2364 10.9022 19.2334 10.9002 19.2268C10.8983 19.2203 10.8883 19.2108 10.8877 19.2006C10.8522 19.1444 10.8175 19.0982 10.7777 19.0416C10.6636 18.8975 10.5543 18.764 10.4451 18.6304C10.4326 18.6371 10.4202 18.6439 10.4077 18.6506C10.4456 18.9598 10.3783 19.2479 10.2323 19.5292C10.1489 19.6632 10.0718 19.7892 9.98586 19.9209C9.95382 19.9601 9.9306 19.9936 9.89875 20.0331C9.78465 20.1676 9.67919 20.2962 9.56505 20.4302C9.49768 20.506 9.43899 20.5764 9.37132 20.6508C9.29523 20.7348 9.22812 20.8147 9.15239 20.9002C9.09041 20.9765 9.03705 21.0472 8.9718 21.1166C8.96663 21.0541 8.97334 20.9931 8.98429 20.9201C9.02831 20.5932 9.06807 20.2783 9.11021 19.9489C9.10772 19.8069 9.10286 19.6795 9.09711 19.5389C9.09691 19.4645 9.09761 19.4033 9.10896 19.3355C9.09754 19.2374 9.07548 19.1456 9.0508 19.0436C9.04833 19.0193 9.04847 19.0052 9.05709 18.9846C9.05098 18.9406 9.03638 18.9033 9.01842 18.8558C9.01567 18.8315 9.01626 18.8173 9.02585 18.7956C9.00925 18.6991 8.98366 18.6102 8.95499 18.5118C8.94855 18.4895 8.94518 18.4767 8.95041 18.4594C8.94839 18.4352 8.93777 18.4156 8.92322 18.3848C8.90563 18.3201 8.89198 18.2667 8.88705 18.2085C8.88396 18.1839 8.87216 18.1641 8.85689 18.1448C8.85341 18.1455 8.84649 18.1468 8.84474 18.135C8.81188 18.0072 8.78078 17.8911 8.75847 17.7705C8.75673 17.7462 8.74618 17.7263 8.73167 17.6963C8.70741 17.6409 8.6871 17.5956 8.66629 17.5404C8.66271 17.5178 8.65965 17.5051 8.66619 17.4864C8.64221 17.3989 8.60865 17.3173 8.57034 17.2337C8.56561 17.2318 8.55552 17.2302 8.55179 17.2195C8.54561 17.1867 8.54314 17.1646 8.54804 17.1374C8.5415 17.1143 8.52759 17.0962 8.512 17.0808C8.51032 17.0836 8.50398 17.0823 8.50492 17.0714C8.49246 17.027 8.47905 16.9934 8.47434 16.9551C8.47134 16.9309 8.45964 16.9113 8.44062 16.8838C8.41159 16.818 8.3899 16.7603 8.36389 16.6916C8.35487 16.6578 8.35016 16.6349 8.35427 16.606C8.27145 16.3463 8.1826 16.0917 8.08643 15.8398C8.05921 15.7686 8.01058 15.7053 7.96395 15.6296C7.91419 15.5112 7.87227 15.4015 7.82773 15.2794C7.82026 15.2342 7.8154 15.2012 7.81878 15.1616C7.75564 14.8773 7.68484 14.5996 7.6112 14.3225C7.60754 14.3088 7.57918 14.3014 7.55859 14.2803C7.55172 14.2471 7.54858 14.2247 7.55485 14.1969C7.55304 14.162 7.54181 14.1325 7.5266 14.0914C7.51965 14.0475 7.51667 14.0152 7.52311 13.9775C7.5213 13.9427 7.51006 13.9132 7.49612 13.872C7.48911 13.8368 7.48482 13.8135 7.47899 13.7755C7.47792 13.6041 7.47839 13.4473 7.48482 13.2781C7.50101 13.1219 7.51125 12.978 7.52149 12.8341C7.50445 12.8284 7.4874 12.8228 7.47036 12.8171C7.3307 12.9013 7.19105 12.9855 7.04087 13.0725C6.90471 13.1703 6.77907 13.2654 6.65064 13.3624C6.64786 13.3643 6.64325 13.3692 6.64032 13.3708C6.63739 13.3725 6.63556 13.3789 6.62695 13.381C6.6056 13.3938 6.59287 13.4046 6.57083 13.421C6.41091 13.5576 6.26029 13.6886 6.10004 13.8249C5.94129 13.9911 5.79218 14.152 5.63344 14.3175C5.50712 14.4707 5.39042 14.6191 5.26509 14.7719C5.23299 14.8136 5.20952 14.851 5.17961 14.8975C5.10043 15.0155 5.0277 15.1247 4.94647 15.2402C4.85911 15.3982 4.78027 15.5497 4.69418 15.7087C4.67535 15.7409 4.66376 15.7657 4.64525 15.7981C4.58655 15.9176 4.53479 16.0295 4.47913 16.1521C4.39638 16.3632 4.31752 16.5636 4.23274 16.7724C4.21539 16.8601 4.20397 16.9392 4.1843 17.0226C4.171 17.0545 4.16595 17.0821 4.15808 17.1199C4.13703 17.1657 4.11879 17.2012 4.09709 17.2458C4.08798 17.2802 4.08232 17.3053 4.07239 17.3378C4.06849 17.3508 4.06887 17.3564 4.06561 17.3711C4.05628 17.4055 4.0506 17.4307 4.0403 17.4657C4.03538 17.4899 4.03509 17.5043 4.0284 17.5296C3.99088 17.738 3.95976 17.9355 3.92025 18.1428C3.9011 18.2862 3.89034 18.4197 3.87735 18.5677C3.88739 19.042 3.89965 19.5018 3.91002 19.9749C3.93312 20.136 3.95814 20.2839 3.98462 20.4436C4.02472 20.6247 4.06334 20.794 4.10121 20.9751C4.12554 21.0645 4.15061 21.1422 4.1799 21.2306C4.19786 21.285 4.21161 21.3286 4.22621 21.3842C4.27901 21.5563 4.33093 21.7164 4.38286 21.8764C4.18567 21.7547 3.98848 21.633 3.77723 21.4969C3.70103 21.445 3.63888 21.4075 3.57035 21.3604C3.4747 21.2857 3.38544 21.2206 3.2917 21.1461C2.57482 20.5902 1.91556 19.9898 1.36096 19.2833C1.29088 19.194 1.21805 19.1068 1.14361 19.0084C1.06459 18.8818 0.988459 18.7655 0.910382 18.6408C0.887469 18.6048 0.866499 18.5772 0.840822 18.5393C0.811204 18.4761 0.786294 18.4232 0.761886 18.3581C0.700143 18.2372 0.637898 18.1285 0.569033 18.0128C0.540183 17.9681 0.517952 17.9304 0.491237 17.8817C0.473046 17.8263 0.459341 17.7821 0.453678 17.7315C0.435818 17.6771 0.409913 17.6291 0.376693 17.5726C0.348745 17.5089 0.328112 17.4536 0.316127 17.3937C0.313082 17.3695 0.30139 17.35 0.28342 17.3205C0.255781 17.2356 0.23442 17.1607 0.221596 17.0809C0.218105 17.0563 0.206078 17.0367 0.186642 17.0072C0.157955 16.9016 0.136678 16.8058 0.124114 16.7055C0.122636 16.6811 0.112447 16.6611 0.0985452 16.6304C0.0916843 16.5972 0.0885357 16.5747 0.0939251 16.5478C0.0918126 16.5237 0.0811622 16.5041 0.0665573 16.4729C0.0596164 16.4289 0.0566311 16.3966 0.0622142 16.3597C0.05983 16.3356 0.0488778 16.316 0.0355986 16.284C0.0297263 16.2296 0.026181 16.1876 0.0323275 16.1394C0.0300518 16.0935 0.0180849 16.054 0.00274749 16.003C-1.64805e-05 15.9678 0.00059049 15.9441 0.0107962 15.9112C0.0247589 15.6588 0.0315491 15.4155 0.0318533 15.1722C0.0319332 15.1081 0.0119578 15.044 0 14.9681C0.00124442 14.9327 0.0036814 14.9093 0.0172909 14.8834C0.0253348 14.8389 0.0222071 14.7967 0.0181629 14.7433C0.0181067 14.7098 0.0189665 14.6875 0.0248892 14.6529C0.079663 14.3675 0.129374 14.0944 0.184563 13.8137C0.192643 13.8003 0.195244 13.7946 0.207439 13.7874C0.215284 13.7643 0.213534 13.7427 0.214503 13.7094C0.241284 13.6133 0.265348 13.5289 0.298622 13.4435C0.311436 13.4223 0.315042 13.402 0.317518 13.3712C0.318782 13.3467 0.321177 13.3329 0.332546 13.318C0.34483 13.2969 0.34814 13.2769 0.350866 13.2463C0.362289 13.2113 0.374297 13.1869 0.397422 13.1604C0.495623 12.9497 0.584062 12.7416 0.668057 12.5317C0.67845 12.5057 0.665198 12.4705 0.664519 12.4281C0.672547 12.3944 0.678959 12.3721 0.691681 12.3431C0.720237 12.2982 0.742483 12.2603 0.772341 12.2165C0.783939 12.1988 0.787925 12.1869 0.791932 12.1647C0.805928 12.1092 0.819904 12.064 0.842483 12.0111C0.88093 11.942 0.910771 11.8806 0.947317 11.8116C1.00656 11.7032 1.05911 11.6024 1.11915 11.4937C1.21739 11.3409 1.30814 11.196 1.40755 11.0462C1.54373 10.861 1.67125 10.6808 1.80548 10.4992C1.81911 10.487 1.82603 10.4762 1.83932 10.4566C1.95096 10.3196 2.05623 10.1914 2.17138 10.0593C2.22841 9.99505 2.27556 9.93475 2.33237 9.87022C2.40765 9.79273 2.47329 9.71948 2.54827 9.64178C2.73334 9.44444 2.90904 9.25155 3.08743 9.05787C3.09011 9.0571 3.09308 9.05244 3.09592 9.04982C3.09875 9.04721 3.1017 9.04012 3.10765 9.0376C3.12137 9.03012 3.12578 9.02311 3.12823 9.01239C3.1296 9.01074 3.13345 9.00878 3.1394 9.00626C3.15311 8.99879 3.15753 8.99177 3.15997 8.98105C3.16134 8.9794 3.16519 8.97745 3.17115 8.97493C3.18486 8.96745 3.18928 8.96044 3.19172 8.94972C3.19309 8.94807 3.19694 8.94611 3.20289 8.94359C3.2166 8.93612 3.22102 8.9291 3.22346 8.91838C3.22483 8.91673 3.22868 8.91478 3.23464 8.91226C3.24835 8.90478 3.25277 8.89777 3.25521 8.88705C3.25658 8.8854 3.26043 8.88344 3.26638 8.88092C3.2801 8.87345 3.28451 8.86643 3.28807 8.8563C3.29057 8.85523 3.2954 8.85278 3.30305 8.84698C3.36515 8.77962 3.41959 8.71805 3.4708 8.65585C3.46756 8.6552 3.46859 8.66164 3.47718 8.65842C3.49218 8.64523 3.4986 8.63526 3.50195 8.62483C3.49889 8.62437 3.50034 8.63031 3.50892 8.62709C3.52393 8.61389 3.53034 8.60392 3.5337 8.59349C3.53064 8.59303 3.53208 8.59897 3.54067 8.59575C3.55567 8.58256 3.56209 8.57259 3.56544 8.56216C3.56238 8.5617 3.56383 8.56764 3.57241 8.56442C3.58742 8.55122 3.59383 8.54125 3.59716 8.53087C3.59408 8.53046 3.59562 8.53641 3.60432 8.53331C3.61938 8.52014 3.62574 8.51007 3.62904 8.49949C3.62598 8.49897 3.62732 8.50497 3.6359 8.50175C3.65091 8.48855 3.65732 8.47858 3.66068 8.46815C3.65762 8.46769 3.65906 8.47363 3.66765 8.47041C3.68265 8.45722 3.68907 8.44725 3.69242 8.43682C3.68937 8.43636 3.69081 8.4423 3.6994 8.43908C3.7144 8.42588 3.72081 8.41591 3.72443 8.40645C3.72162 8.40697 3.725 8.4115 3.73149 8.40962C3.73799 8.40774 3.74727 8.39802 3.75405 8.39854C3.76083 8.39905 3.77439 8.39816 3.78607 8.39778C3.84256 8.3411 3.88737 8.28481 3.93443 8.22147C3.94411 8.20732 3.94874 8.19874 3.94796 8.18743C3.94536 8.18619 3.94561 8.19189 3.95399 8.18861C3.96875 8.17558 3.97513 8.16583 3.97865 8.15554C3.97578 8.155 3.97735 8.16055 3.98573 8.15727C4.00049 8.14425 4.00688 8.1345 4.01039 8.12421C4.00753 8.12367 4.0091 8.12922 4.01748 8.12594C4.03224 8.11291 4.03862 8.10316 4.04214 8.09287C4.03927 8.09233 4.04084 8.09788 4.04922 8.0946C4.06398 8.08158 4.07037 8.07183 4.07388 8.06154C4.07102 8.061 4.07259 8.06655 4.08097 8.06327C4.09573 8.05024 4.10211 8.0405 4.10563 8.0302C4.10276 8.02966 4.10434 8.03521 4.11271 8.03193C4.12747 8.01891 4.13386 8.00916 4.13737 7.99887C4.13451 7.99833 4.13608 8.00388 4.14446 8.0006C4.15922 7.98757 4.1656 7.97782 4.16912 7.96753C4.16625 7.96699 4.16783 7.97254 4.1762 7.96926C4.19096 7.95624 4.19735 7.94649 4.20087 7.9362C4.198 7.93566 4.19957 7.94121 4.20795 7.93793C4.22271 7.9249 4.22909 7.91515 4.2331 7.90559C4.23072 7.90577 4.2338 7.90937 4.24291 7.90479C4.29908 7.85093 4.34614 7.80165 4.40035 7.74927C4.41649 7.73999 4.42226 7.73164 4.43203 7.71795C4.44827 7.70851 4.45414 7.70009 4.46402 7.68642C4.4802 7.67708 4.486 7.6687 4.4958 7.65507C4.51196 7.64573 4.51775 7.63736 4.52754 7.62373C4.5437 7.6144 4.54949 7.60602 4.55926 7.59247C4.57536 7.58327 4.58108 7.57494 4.59076 7.56128C4.607 7.55183 4.61286 7.54341 4.62275 7.52974C4.63892 7.5204 4.64472 7.51202 4.65452 7.49839C4.67068 7.48906 4.67648 7.48068 4.68625 7.46708C4.70236 7.45779 4.70813 7.44944 4.71999 7.43412C4.78829 7.36332 4.84729 7.29734 4.90808 7.22908C4.90986 7.2268 4.91348 7.22228 4.91856 7.21978C4.93011 7.21279 4.93428 7.20675 4.93855 7.19725C4.94095 7.19534 4.94523 7.19094 4.95031 7.18844C4.96186 7.18145 4.96602 7.17542 4.97029 7.16591C4.9727 7.164 4.97697 7.15961 4.98205 7.15711C4.9936 7.15012 4.99777 7.14408 5.00204 7.13458C5.00444 7.13267 5.00872 7.12827 5.0138 7.12577C5.02535 7.11878 5.02951 7.11275 5.03378 7.10324C5.03619 7.10133 5.04046 7.09694 5.04554 7.09444C5.05709 7.08745 5.06126 7.08141 5.0671 7.07211C5.07108 7.07039 5.07635 7.06358 5.07839 7.06228C5.08043 7.06097 5.08185 7.05638 5.09165 7.05201C5.28944 6.85162 5.48474 6.66188 5.66376 6.4582C5.96264 6.11816 6.2511 5.7692 6.55335 5.41957C6.59509 5.37113 6.62744 5.32712 6.65947 5.28242C6.65916 5.28173 6.65829 5.2805 6.66539 5.2765C6.68125 5.2592 6.69 5.2459 6.7072 5.22636C6.78404 5.12048 6.85244 5.02085 6.92847 4.91372C7.12758 4.58824 7.31906 4.27024 7.5166 3.94601C7.53483 3.9078 7.547 3.87582 7.56874 3.83602C7.62986 3.7024 7.68142 3.5766 7.73945 3.44222C7.78698 3.30258 7.82803 3.17152 7.8716 3.02806C7.90164 2.87759 7.92917 2.73952 7.96202 2.58971C7.96641 2.54386 7.96549 2.50974 7.96688 2.46113C7.95829 2.16458 7.94738 1.88251 7.93688 1.58742C7.90078 1.43587 7.86427 1.29734 7.82338 1.14732C7.70859 0.773217 7.53813 0.440752 7.30564 0.139426C7.29123 0.104566 7.27683 0.0697067 7.24802 0C7.36445 0.0631084 7.44954 0.109227 7.54597 0.15618C7.61245 0.19138 7.66759 0.225746 7.74059 0.271103C7.85014 0.33457 7.94183 0.387045 8.04142 0.446867C8.3502 0.669282 8.6511 0.88435 8.9553 1.10847C8.98945 1.14018 9.0203 1.16284 9.05722 1.19447C9.19491 1.31541 9.32654 1.4274 9.46203 1.54792C9.50048 1.5822 9.53505 1.60795 9.57555 1.64336C9.68854 1.76139 9.79562 1.86977 9.90666 1.98712C9.94038 2.02104 9.97013 2.04598 10.0029 2.08106C10.1389 2.24392 10.2719 2.39664 10.4072 2.55991C10.6336 2.89441 10.8578 3.21836 11.0828 3.55333C11.1359 3.65047 11.1883 3.73659 11.2427 3.83371C11.328 4.00503 11.4115 4.16534 11.495 4.33475C11.51 4.36985 11.5248 4.39587 11.5441 4.43311C11.6684 4.75994 11.7884 5.07555 11.9095 5.4032C11.9591 5.57854 12.0076 5.74183 12.0587 5.91703C12.0959 6.07311 12.1304 6.21727 12.163 6.37444C12.1867 6.52633 12.2124 6.6652 12.2391 6.81637C12.2786 7.27875 12.3172 7.72883 12.3538 8.18728C12.3532 8.20125 12.3545 8.20683 12.3535 8.22688C12.3484 8.49825 12.3456 8.75513 12.3342 9.02098C12.3251 9.07087 12.3247 9.11178 12.3218 9.16648C12.2846 9.50061 12.2498 9.82094 12.2064 10.1506C12.1763 10.2942 12.1548 10.4285 12.131 10.5752C12.0911 10.7664 12.0535 10.9451 12.0095 11.1326C11.9817 11.241 11.9604 11.3404 11.9327 11.4498C11.8341 11.7757 11.742 12.0914 11.6399 12.4129C11.5745 12.5832 11.5192 12.7478 11.4558 12.9208C11.3198 13.2466 11.1918 13.5638 11.0575 13.8894C10.9892 14.0348 10.9274 14.1718 10.8462 14.3516C11.4984 14.034 11.8801 13.5288 12.2051 12.9539C12.265 12.8526 12.3162 12.7589 12.3741 12.6577C12.4126 12.5806 12.4443 12.511 12.4837 12.4332C12.5558 12.2751 12.62 12.1251 12.6905 11.9664C12.7911 11.6694 12.8855 11.3812 12.9834 11.0836C13.0172 11.071 13.0474 11.0679 13.0812 11.0739C13.1194 11.1198 13.1542 11.1565 13.1943 11.2031C13.2754 11.3097 13.3511 11.4064 13.4296 11.5137C13.5166 11.6414 13.6008 11.7586 13.6866 11.8855C13.7083 11.9207 13.7285 11.9462 13.7494 11.9827C13.8343 12.1319 13.9184 12.2701 14.0054 12.4189C14.0793 12.555 14.1503 12.6804 14.221 12.8161C14.2432 12.8748 14.2656 12.9232 14.29 12.9827C14.3648 13.1544 14.4378 13.3149 14.5117 13.4873C14.6038 13.7671 14.695 14.0352 14.7889 14.3151C14.8262 14.4817 14.8609 14.6364 14.8952 14.804C14.9194 14.9453 14.9439 15.0737 14.9692 15.2147C14.9829 15.7045 14.9958 16.1817 15 16.6689C14.9805 16.8026 14.9695 16.9263 14.9546 17.062C14.9144 17.2523 14.8783 17.4306 14.8355 17.6177C14.7969 17.7474 14.7649 17.8681 14.7251 17.9973C14.6953 18.0719 14.6734 18.1379 14.6453 18.2125C14.5962 18.3316 14.5533 18.4421 14.5028 18.5611C14.3242 18.8871 14.1533 19.2046 13.9756 19.5292C13.746 19.8242 13.523 20.1121 13.291 20.4043C13.2621 20.4354 13.2423 20.4622 13.2135 20.4933C13.087 20.6166 12.9695 20.7357 12.8433 20.8604C12.8097 20.8986 12.7849 20.9312 12.7496 20.9659C12.5998 21.0928 12.4604 21.2175 12.321 21.3423Z" fill="#FF4006"/>
</svg>
