<svg width="50" height="53" viewBox="0 0 50 53" fill="none" xmlns="http://www.w3.org/2000/svg">
<line x1="10.1014" y1="22.2222" x2="10.1014" y2="52.5252" stroke="#63D1D0" stroke-width="4.0404"/>
<circle cx="22.0203" cy="21.8182" r="4.63636" stroke="#63D1D0" stroke-width="1.63636"/>
<circle cx="16.5253" cy="25.6161" r="1.63636" stroke="#63D1D0" stroke-width="1.09091"/>
<circle cx="16.4708" cy="29.7071" r="1.09091" stroke="#63D1D0" stroke-width="0.545455"/>
<circle cx="16.4708" cy="32.9798" r="1.09091" stroke="#63D1D0" stroke-width="0.545455"/>
<line x1="16.4162" y1="28.6708" x2="16.4162" y2="27.5799" stroke="#63D1D0" stroke-width="0.436364"/>
<line x1="16.4162" y1="32.0526" x2="16.4162" y2="30.9617" stroke="#63D1D0" stroke-width="0.436364"/>
<line x1="8.08124" y1="50.5051" x2="48.4873" y2="50.5051" stroke="#63D1D0" stroke-width="4.0404"/>
<line y1="-2.0202" x2="40.4051" y2="-2.0202" transform="matrix(-0.707125 0.707089 -0.707125 -0.707089 28.5714 0.00012207)" stroke="#63D1D0" stroke-width="4.0404"/>
<line y1="-2.0202" x2="30.3038" y2="-2.0202" transform="matrix(-0.707125 -0.707089 0.707125 -0.707089 50 21.4275)" stroke="#63D1D0" stroke-width="4.0404"/>
<mask id="mask0_4557_1006" style="mask-type:alpha" maskUnits="userSpaceOnUse" x="23" y="31" width="11" height="19">
<rect x="23.2323" y="31.3131" width="10.101" height="18.1818" rx="0.757576" fill="#63D1D0"/>
</mask>
<g mask="url(#mask0_4557_1006)">
<path d="M23.7616 43.3926C23.533 43.2053 23.4341 42.9022 23.5084 42.6161L27.5496 27.0553C27.746 26.2991 28.8197 26.2991 29.0161 27.0553L33.0573 42.6161C33.1316 42.9022 33.0328 43.2053 32.8041 43.3926L28.7629 46.7028C28.4837 46.9315 28.082 46.9315 27.8028 46.7028L23.7616 43.3926Z" fill="#63D1D0"/>
</g>
<path d="M30.1901 30.5288C30.1045 30.6999 29.9297 30.808 29.7384 30.808H26.8273C26.636 30.808 26.4611 30.6999 26.3756 30.5288L25.1129 28.0035C24.945 27.6677 25.1892 27.2726 25.5647 27.2726H31.001C31.3764 27.2726 31.6206 27.6677 31.4527 28.0035L30.1901 30.5288Z" fill="#63D1D0"/>
</svg>
